HIERARCHY
ROOT Bone
{
	OFFSET 0.000000 0.000000 0.000000
	CHANNELS 6 Xposition Yposition Zposition Xrotation Yrotation Zrotation
	JOINT Bone.001
	{
		OFFSET 0.002685 0.000000 0.142282
		CHANNELS 3 Xrotation Yrotation Zrotation
		JOINT Bone.002
		{
			OFFSET 0.002685 0.000000 0.131544
			CHANNELS 3 Xrotation Yrotation Zrotation
			JOINT Bone.003
			{
				OFFSET -0.002685 0.000000 0.131544
				CHANNELS 3 Xrotation Yrotation Zrotation
				JOINT Bone.004
				{
					OFFSET -0.002685 0.000000 0.131544
					CHANNELS 3 Xrotation Yrotation Zrotation
					JOINT Bone.005
					{
						OFFSET -0.005369 0.000000 0.131544
						CHANNELS 3 Xrotation Yrotation Zrotation
						End Site
						{
							OFFSET 0.000000 0.000000 0.131544
						}
					}
				}
			}
		}
	}
}
MOTION
Frames: 62
Frame Time: 0.041667
0.000000 0.000000 0.000000 0.000000 1.080924 0.000000 0.000000 0.088215 0.000000 0.000000 -2.338279 0.000000 0.000000 0.000000 0.000000 0.000000 -1.168167 0.000000 0.000000 2.337306 0.000000 
0.000000 0.000000 0.000000 0.000000 1.080924 0.000000 0.000000 0.088215 0.000000 0.000000 -2.338279 0.000000 0.000000 0.000000 0.000000 0.000000 -1.168167 0.000000 0.000000 2.337306 0.000000 
0.000000 0.000000 0.000000 0.000000 2.202598 0.000000 0.000000 -2.202598 0.000000 0.000000 0.000000 0.000000 0.000000 -1.169139 0.000000 0.000000 -1.168167 0.000000 0.000000 2.337306 0.000000 
0.000000 0.000000 0.000000 0.000000 2.161079 0.000000 0.000000 -2.161079 0.000000 0.000000 0.000000 0.000000 0.000000 -1.169139 0.000000 0.000000 -1.168167 0.000000 0.000000 2.337306 0.000000 
0.000000 0.000000 0.000000 0.000000 2.337306 0.000000 0.000000 -2.337306 0.000000 0.000000 0.000000 0.000000 0.000000 -1.145763 0.000000 0.000000 -1.144847 0.000000 0.000000 2.290610 0.000000 
0.000000 0.000000 0.000000 0.000000 2.245743 0.000000 0.000000 -2.245743 0.000000 0.000000 0.000000 0.000000 0.000000 -1.145763 0.000000 0.000000 -1.144847 0.000000 0.000000 2.290610 0.000000 
0.000000 0.000000 0.000000 0.000000 2.202598 0.000000 0.000000 -2.202598 0.000000 0.000000 0.000000 0.000000 0.000000 -1.145763 0.000000 0.000000 -1.144847 0.000000 0.000000 2.290610 0.000000 
0.000000 0.000000 0.000000 0.000000 2.290610 0.000000 0.000000 -1.167307 0.000000 0.000000 -1.123303 0.000000 0.000000 -2.245743 0.000000 0.000000 1.122440 0.000000 0.000000 1.123303 0.000000 
0.000000 0.000000 0.000000 0.000000 3.239700 0.000000 0.000000 -3.239700 0.000000 0.000000 0.000000 0.000000 0.000000 -1.145763 0.000000 0.000000 -1.144847 0.000000 0.000000 2.290610 0.000000 
0.000000 0.000000 0.000000 0.000000 3.503532 0.000000 0.000000 -2.357769 0.000000 0.000000 -1.145763 0.000000 0.000000 -1.145763 0.000000 0.000000 -1.144847 0.000000 0.000000 1.144847 0.000000 
0.000000 0.000000 0.000000 0.000000 4.236395 0.000000 0.000000 -4.236395 0.000000 0.000000 0.000000 0.000000 0.000000 -1.145763 0.000000 0.000000 0.000000 0.000000 0.000000 0.000000 0.000000 
0.000000 0.000000 0.000000 0.000000 5.492325 0.000000 0.000000 -5.492325 0.000000 0.000000 0.000000 0.000000 0.000000 -1.145763 0.000000 0.000000 0.000000 0.000000 0.000000 0.000000 0.000000 
0.000000 0.000000 0.000000 0.000000 5.710593 0.000000 0.000000 -4.587290 0.000000 0.000000 -1.123303 0.000000 0.000000 0.000000 0.000000 0.000000 -1.123303 0.000000 0.000000 0.000000 0.000000 
0.000000 0.000000 0.000000 0.000000 5.710593 0.000000 0.000000 -4.587290 0.000000 0.000000 -1.123303 0.000000 0.000000 0.000000 0.000000 0.000000 -1.123303 0.000000 0.000000 0.000000 0.000000 
0.000000 0.000000 0.000000 0.000000 6.458816 0.000000 0.000000 -4.213074 0.000000 0.000000 -2.245743 0.000000 0.000000 0.000000 0.000000 0.000000 -1.123303 0.000000 0.000000 1.123303 0.000000 
0.000000 0.000000 0.000000 0.000000 7.253195 0.000000 0.000000 -5.007452 0.000000 0.000000 -2.245743 0.000000 0.000000 1.123303 0.000000 0.000000 -2.246605 0.000000 0.000000 1.123303 0.000000 
0.000000 0.000000 0.000000 0.000000 7.386043 0.000000 0.000000 -5.140301 0.000000 0.000000 -1.122440 0.000000 0.000000 -1.123303 0.000000 0.000000 0.000000 0.000000 0.000000 0.000000 0.000000 
0.000000 0.000000 0.000000 0.000000 7.523820 0.000000 0.000000 -4.157360 0.000000 0.000000 -2.243158 0.000000 0.000000 -1.123303 0.000000 0.000000 0.000000 0.000000 0.000000 0.000000 0.000000 
0.000000 0.000000 0.000000 0.000000 7.253195 0.000000 0.000000 -3.886734 0.000000 0.000000 -2.243158 0.000000 0.000000 -1.123303 0.000000 0.000000 1.123303 0.000000 0.000000 -2.246605 0.000000 
0.000000 0.000000 0.000000 0.000000 7.523820 0.000000 0.000000 -4.157360 0.000000 0.000000 -2.243158 0.000000 0.000000 -1.123303 0.000000 0.000000 1.123303 0.000000 0.000000 -1.123303 0.000000 
0.000000 0.000000 0.000000 0.000000 7.666804 0.000000 0.000000 -4.300344 0.000000 0.000000 -2.243158 0.000000 0.000000 0.000000 0.000000 0.000000 -1.123303 0.000000 0.000000 0.000000 0.000000 
0.000000 0.000000 0.000000 0.000000 7.666804 0.000000 0.000000 -4.300344 0.000000 0.000000 -2.243158 0.000000 0.000000 0.000000 0.000000 0.000000 -1.123303 0.000000 0.000000 0.000000 0.000000 
0.000000 0.000000 0.000000 0.000000 8.746162 0.000000 0.000000 -5.444297 0.000000 0.000000 -2.200160 0.000000 0.000000 0.000000 0.000000 0.000000 -1.101706 0.000000 0.000000 1.101706 0.000000 
0.000000 0.000000 0.000000 0.000000 8.583621 0.000000 0.000000 -5.217161 0.000000 0.000000 -2.243158 0.000000 0.000000 0.000000 0.000000 0.000000 0.000000 0.000000 0.000000 -2.246605 0.000000 
0.000000 0.000000 0.000000 0.000000 9.293309 0.000000 0.000000 -5.926848 0.000000 0.000000 -2.243158 0.000000 0.000000 0.000000 0.000000 0.000000 -1.123303 0.000000 0.000000 0.000000 0.000000 
0.000000 0.000000 0.000000 0.000000 9.293309 0.000000 0.000000 -7.047566 0.000000 0.000000 0.000000 0.000000 0.000000 -1.122440 0.000000 0.000000 -1.123303 0.000000 0.000000 0.000000 0.000000 
0.000000 0.000000 0.000000 0.000000 9.819301 0.000000 0.000000 -5.420595 0.000000 0.000000 -2.196107 0.000000 0.000000 -1.100892 0.000000 0.000000 0.000000 0.000000 0.000000 -1.101706 0.000000 
0.000000 0.000000 0.000000 0.000000 11.113041 0.000000 0.000000 -7.811175 0.000000 0.000000 -1.099268 0.000000 0.000000 -1.100892 0.000000 0.000000 0.000000 0.000000 0.000000 0.000000 0.000000 
0.000000 0.000000 0.000000 0.000000 11.513831 0.000000 0.000000 -8.211966 0.000000 0.000000 -1.099268 0.000000 0.000000 0.000000 0.000000 0.000000 -1.100892 0.000000 0.000000 0.000000 0.000000 
0.000000 0.000000 0.000000 0.000000 11.725112 0.000000 0.000000 -7.326407 0.000000 0.000000 -2.196107 0.000000 0.000000 0.000000 0.000000 0.000000 -1.100892 0.000000 0.000000 0.000000 0.000000 
0.000000 0.000000 0.000000 0.000000 11.309932 0.000000 0.000000 -6.825326 0.000000 0.000000 -2.238863 0.000000 0.000000 0.000000 0.000000 0.000000 0.000000 0.000000 0.000000 -1.122440 0.000000 
0.000000 0.000000 0.000000 0.000000 11.725112 0.000000 0.000000 -7.326407 0.000000 0.000000 -1.096840 0.000000 0.000000 -1.099268 0.000000 0.000000 -1.100892 0.000000 0.000000 1.100892 0.000000 
0.000000 0.000000 0.000000 0.000000 11.513831 0.000000 0.000000 -7.115126 0.000000 0.000000 -1.096840 0.000000 0.000000 -1.099268 0.000000 0.000000 -1.100892 0.000000 0.000000 1.100892 0.000000 
0.000000 0.000000 0.000000 0.000000 11.513831 0.000000 0.000000 -7.115126 0.000000 0.000000 -1.096840 0.000000 0.000000 -2.200160 0.000000 0.000000 1.100892 0.000000 0.000000 0.000000 0.000000 
0.000000 0.000000 0.000000 0.000000 10.491477 0.000000 0.000000 -6.092772 0.000000 0.000000 -1.096840 0.000000 0.000000 -1.099268 0.000000 0.000000 -1.100892 0.000000 0.000000 0.000000 0.000000 
0.000000 0.000000 0.000000 0.000000 9.637538 0.000000 0.000000 -5.238833 0.000000 0.000000 -2.196107 0.000000 0.000000 1.099268 0.000000 0.000000 -2.200160 0.000000 0.000000 0.000000 0.000000 
0.000000 0.000000 0.000000 0.000000 9.637538 0.000000 0.000000 -5.238833 0.000000 0.000000 -2.196107 0.000000 0.000000 1.099268 0.000000 0.000000 -2.200160 0.000000 0.000000 0.000000 0.000000 
0.000000 0.000000 0.000000 0.000000 8.426969 0.000000 0.000000 -5.060508 0.000000 0.000000 -1.120718 0.000000 0.000000 0.000000 0.000000 0.000000 -1.122440 0.000000 0.000000 0.000000 0.000000 
0.000000 0.000000 0.000000 0.000000 8.275893 0.000000 0.000000 -6.030150 0.000000 0.000000 -1.122440 0.000000 0.000000 1.122440 0.000000 0.000000 -1.122440 0.000000 0.000000 0.000000 0.000000 
0.000000 0.000000 0.000000 0.000000 5.194429 0.000000 0.000000 -2.948686 0.000000 0.000000 -1.122440 0.000000 0.000000 0.000000 0.000000 0.000000 -1.123303 0.000000 0.000000 1.123303 0.000000 
0.000000 0.000000 0.000000 0.000000 5.710593 0.000000 0.000000 -4.587290 0.000000 0.000000 0.000000 0.000000 0.000000 -1.123303 0.000000 0.000000 -1.123303 0.000000 0.000000 2.246605 0.000000 
0.000000 0.000000 0.000000 0.000000 4.484606 0.000000 0.000000 -3.361303 0.000000 0.000000 -1.123303 0.000000 0.000000 0.000000 0.000000 0.000000 -1.123303 0.000000 0.000000 1.123303 0.000000 
0.000000 0.000000 0.000000 0.000000 3.366461 0.000000 0.000000 -3.366461 0.000000 0.000000 0.000000 0.000000 0.000000 0.000000 0.000000 0.000000 -1.123303 0.000000 0.000000 1.123303 0.000000 
0.000000 0.000000 0.000000 0.000000 3.179830 0.000000 0.000000 -3.179830 0.000000 0.000000 0.000000 0.000000 0.000000 -1.145763 0.000000 0.000000 -1.144847 0.000000 0.000000 1.144847 0.000000 
0.000000 0.000000 0.000000 0.000000 3.122130 0.000000 0.000000 -4.245433 0.000000 0.000000 1.123303 0.000000 0.000000 -1.123303 0.000000 0.000000 -1.122440 0.000000 0.000000 1.122440 0.000000 
0.000000 0.000000 0.000000 0.000000 3.122130 0.000000 0.000000 -4.245433 0.000000 0.000000 1.123303 0.000000 0.000000 -1.123303 0.000000 0.000000 -1.122440 0.000000 0.000000 1.122440 0.000000 
0.000000 0.000000 0.000000 0.000000 3.179830 0.000000 0.000000 -3.179830 0.000000 0.000000 -1.123303 0.000000 0.000000 0.000000 0.000000 0.000000 -1.122440 0.000000 0.000000 0.000000 0.000000 
0.000000 0.000000 0.000000 0.000000 4.316028 0.000000 0.000000 -4.316028 0.000000 0.000000 -1.123303 0.000000 0.000000 0.000000 0.000000 0.000000 -1.122440 0.000000 0.000000 0.000000 0.000000 
0.000000 0.000000 0.000000 0.000000 5.492325 0.000000 0.000000 -5.492325 0.000000 0.000000 0.000000 0.000000 0.000000 -1.123303 0.000000 0.000000 -2.243158 0.000000 0.000000 2.243158 0.000000 
0.000000 0.000000 0.000000 0.000000 5.492325 0.000000 0.000000 -4.369022 0.000000 0.000000 -1.123303 0.000000 0.000000 0.000000 0.000000 0.000000 -2.245743 0.000000 0.000000 0.000000 0.000000 
0.000000 0.000000 0.000000 0.000000 6.225829 0.000000 0.000000 -5.102526 0.000000 0.000000 -1.123303 0.000000 0.000000 0.000000 0.000000 0.000000 -1.123303 0.000000 0.000000 0.000000 0.000000 
0.000000 0.000000 0.000000 0.000000 6.458816 0.000000 0.000000 -5.335514 0.000000 0.000000 0.000000 0.000000 0.000000 -2.246605 0.000000 0.000000 1.123303 0.000000 0.000000 0.000000 0.000000 
0.000000 0.000000 0.000000 0.000000 7.666804 0.000000 0.000000 -6.521041 0.000000 0.000000 -2.291526 0.000000 0.000000 1.145763 0.000000 0.000000 0.000000 0.000000 0.000000 -1.145763 0.000000 
0.000000 0.000000 0.000000 0.000000 8.426969 0.000000 0.000000 -7.281206 0.000000 0.000000 -2.291526 0.000000 0.000000 0.000000 0.000000 0.000000 0.000000 0.000000 0.000000 0.000000 0.000000 
0.000000 0.000000 0.000000 0.000000 9.637538 0.000000 0.000000 -8.535832 0.000000 0.000000 -1.101706 0.000000 0.000000 -1.101706 0.000000 0.000000 -1.100892 0.000000 0.000000 -1.099268 0.000000 
0.000000 0.000000 0.000000 0.000000 9.950627 0.000000 0.000000 -7.789547 0.000000 0.000000 -2.161079 0.000000 0.000000 0.000000 0.000000 0.000000 -2.161079 0.000000 0.000000 -1.078621 0.000000 
0.000000 0.000000 0.000000 0.000000 11.309932 0.000000 0.000000 -9.148853 0.000000 0.000000 0.000000 0.000000 0.000000 -2.161079 0.000000 0.000000 0.000000 0.000000 0.000000 -3.239700 0.000000 
0.000000 0.000000 0.000000 0.000000 12.757532 0.000000 0.000000 -9.455666 0.000000 0.000000 -2.200160 0.000000 0.000000 0.000000 0.000000 0.000000 0.000000 0.000000 0.000000 -2.203412 0.000000 
0.000000 0.000000 0.000000 0.000000 13.240520 0.000000 0.000000 -7.641181 0.000000 0.000000 -4.476037 0.000000 0.000000 0.000000 0.000000 0.000000 -1.123303 0.000000 0.000000 -1.123303 0.000000 
0.000000 0.000000 0.000000 0.000000 14.036243 0.000000 0.000000 -8.436904 0.000000 0.000000 -2.232879 0.000000 0.000000 -3.366461 0.000000 0.000000 0.000000 0.000000 0.000000 -1.123303 0.000000 
0.000000 0.000000 0.000000 0.000000 14.534455 0.000000 0.000000 -7.952510 0.000000 0.000000 -2.183239 0.000000 0.000000 -2.196107 0.000000 0.000000 -1.100892 0.000000 0.000000 -3.304304 0.000000 
0.000000 0.000000 0.000000 0.000000 14.796762 0.000000 0.000000 -8.456570 0.000000 0.000000 -1.050111 0.000000 0.000000 0.000000 0.000000 0.000000 -3.168985 0.000000 0.000000 -1.060185 0.000000 
